<?xml version="1.0" standalone="no"?>
<!DOCTYPE svg PUBLIC "-//W3C//DTD SVG 20010904//EN"
 "http://www.w3.org/TR/2001/REC-SVG-20010904/DTD/svg10.dtd">
<svg version="1.0" xmlns="http://www.w3.org/2000/svg"
 width="274.000000pt" height="274.000000pt" viewBox="0 0 274.000000 274.000000"
 preserveAspectRatio="xMidYMid meet">
<metadata>
Created by potrace 1.11, written by Peter Selinger 2001-2013
</metadata>
<g transform="translate(0.000000,274.000000) scale(0.100000,-0.100000)"
fill="#000000" stroke="none">
<path d="M1228 2735 c-2 -2 -25 -6 -51 -9 -27 -4 -69 -11 -95 -17 -26 -6 -54
-12 -62 -14 -105 -22 -308 -115 -413 -189 -33 -22 -70 -48 -83 -56 -46 -29
-220 -215 -276 -295 -58 -84 -125 -209 -153 -285 -72 -198 -90 -302 -89 -515
0 -101 6 -179 18 -240 92 -463 404 -841 834 -1013 192 -77 330 -101 552 -97
205 4 348 38 536 125 162 76 319 188 424 304 72 80 82 93 135 171 123 184 191
365 224 596 9 64 8 360 -2 376 -3 4 -8 26 -12 48 -4 22 -8 45 -9 50 -2 6 -6
24 -10 40 -38 149 -125 335 -218 460 -53 72 -201 225 -273 282 -67 54 -215
138 -310 175 -81 33 -126 49 -132 49 -2 0 -17 5 -35 10 -99 30 -183 41 -340
44 -86 2 -158 2 -160 0z"/>
</g>
</svg>
